HIERARCHY
ROOT Hips
{
	OFFSET 0.00000 0.00000 0.00000
	CHANNELS 6 Xposition Yposition Zposition Yrotation Zrotation Xrotation 
	JOINT Lumbar
	{
		OFFSET 0 0 0
		CHANNELS 3 Zrotation Xrotation Yrotation
		JOINT Neck
		{
			OFFSET 0.00 0.2701 0.00
			CHANNELS 3 Zrotation Xrotation Yrotation
			End Site
			{
				OFFSET 0.00 0.1379 0.00
			}
		}
		JOINT RightShoulder
		{
			OFFSET 0.0119 0.2289 0.1181
			CHANNELS 3 Zrotation Xrotation Yrotation
			JOINT RightElbow
			{
				OFFSET 0.00 -0.1475 0.00
				CHANNELS 2 Zrotation Yrotation
				JOINT RightWrist
				{
					OFFSET 0.00 -0.1605 0.00
					CHANNELS 2 Zrotation Xrotation
					End Site
					{
						OFFSET 0.0040 -0.1068 0.0006
					}
				}
			}
		}
		JOINT LeftShoulder
		{
			OFFSET 0.0119 0.2289 -0.1181
			CHANNELS 3 Zrotation Xrotation Yrotation
			JOINT LeftElbow
			{
				OFFSET 0.00 -0.1475 0.00
				CHANNELS 2 Zrotation Yrotation
				JOINT LeftWrist
				{
					OFFSET 0.00 -0.1605 0.00
					CHANNELS 2 Zrotation Xrotation
					End Site
					{
						OFFSET 0.0040 -0.1068 -0.0006
					}
				}
			}
		}
	}
	JOINT RightHip
	{
		OFFSET 0.0316 -0.0424 0.0458
		CHANNELS 3 Zrotation Xrotation Yrotation
		JOINT RightKnee
		{
			OFFSET 0.00 -0.2438 0.00
			CHANNELS 1 Zrotation
			JOINT RightAnkle
			{
				OFFSET 0.00 -0.2449 0.00
				CHANNELS 3 Zrotation Xrotation Yrotation
				End Site
				{
					OFFSET 0.1237 -0.0542 0.0051
				}
			}
		}
	}
	JOINT LeftHip
	{
		OFFSET 0.0316 -0.0424 -0.0458
		CHANNELS 3 Zrotation Xrotation Yrotation
		JOINT LeftKnee
		{
			OFFSET 0.00 -0.2438 0.00
			CHANNELS 1 Zrotation
			JOINT LeftAnkle
			{
				OFFSET 0.00 -0.2449 0.00
				CHANNELS 3 Zrotation Xrotation Yrotation
				End Site
				{
					OFFSET 0.1237 -0.0542 -0.0051
				}
			}
		}
	}
}
MOTION
Frames: 14
Frame Time: 0.02
0.00024 5e-05 -0.00013 24.1461 -28.94886 -7.62098 49.06229 3.0031 -3.34019 -16.49687 -2.04098 -0.61516 36.1715 -106.39214 55.6341 8.43879 85.64486 9.82241 -1.99649 9.36861 106.869 -55.61795 7.89851 -82.01897 5.62478 2.88873 43.1384 -5.13379 -8.79826 -21.61927 -6.81389 -2.09302 -3.28592 48.59752 9.78742 -0.17803 -26.96863 -7.12143 2.0624 3.27146
0.00021 4e-05 -0.00013 24.14514 -28.93258 -7.616 49.04436 3.0026 -3.32747 -16.48688 -2.03222 -0.61569 36.15943 -106.41844 55.6341 8.43431 85.65187 9.7559 -1.97252 9.42645 106.90726 -55.61936 7.90947 -82.09549 5.60487 2.85701 43.12922 -5.13335 -8.769 -21.62561 -6.81519 -2.10168 -3.28813 48.57987 9.86852 0.17714 -26.97262 -7.12324 2.02459 3.25109
0.00018 3e-05 -0.00012 24.14421 -28.91635 -7.61102 49.02646 3.00208 -3.31479 -16.47693 -2.02349 -0.61621 36.14764 -106.44473 55.6341 8.43004 85.65885 9.68945 -1.94865 9.48424 106.94542 -55.62072 7.92042 -82.17177 5.58495 2.82537 43.12008 -5.13293 -8.73985 -21.63196 -6.81648 -2.11033 -3.29034 48.5623 9.94938 0.53129 -26.9766 -7.12506 1.98689 3.23077
0.00016 2e-05 -0.00012 24.14325 -28.90012 -7.60605 49.00858 3.00158 -3.30211 -16.46697 -2.01476 -0.61674 36.13561 -106.47096 55.63411 8.42557 85.66582 9.62315 -1.92476 9.5419 106.98357 -55.62216 7.93135 -82.24806 5.56511 2.79375 43.11093 -5.13249 -8.71068 -21.63829 -6.81778 -2.11896 -3.29254 48.54471 10.03024 0.88537 -26.98057 -7.12687 1.94919 3.21046
0.00013 1e-05 -0.00011 24.14227 -28.88386 -7.60106 48.9907 3.00109 -3.28939 -16.45698 -2.006 -0.61727 36.12333 -106.49718 55.6341 8.42093 85.67285 9.55676 -1.90075 9.59964 107.02181 -55.62354 7.9423 -82.3246 5.54527 2.76205 43.10173 -5.13204 -8.68142 -21.64462 -6.81907 -2.12763 -3.29475 48.52705 10.11134 1.24044 -26.98455 -7.12869 1.9114 3.19009
0.0001 0 -0.00011 24.14144 -28.86771 -7.59612 48.97274 3.00053 -3.2768 -16.44713 -1.99732 -0.61779 36.1126 -106.52361 55.6341 8.41752 85.67976 9.49012 -1.8772 9.65758 107.0598 -55.6248 7.95327 -82.40032 5.52515 2.73054 43.09271 -5.13169 -8.65248 -21.65097 -6.82037 -2.13623 -3.29695 48.50969 10.19171 1.59265 -26.98854 -7.13049 1.87388 3.16988
8e-05 -0 -0.0001 24.14029 -28.85133 -7.59109 48.95496 3.00011 -3.26395 -16.43699 -1.98849 -0.61831 36.0985 -106.54956 55.63412 8.41134 85.6868 9.42428 -1.85273 9.71487 107.09828 -55.62665 7.96414 -82.47759 5.50573 2.69869 43.08333 -5.13111 -8.62292 -21.65728 -6.82167 -2.14494 -3.29916 48.49171 10.27345 1.95018 -26.9925 -7.13231 1.83586 3.14938
5e-05 -1e-05 -0.0001 24.13946 -28.83518 -7.58614 48.93701 2.99955 -3.25136 -16.42714 -1.97981 -0.61884 36.08798 -106.57603 55.63408 8.40823 85.69391 9.35731 -1.82917 9.77308 107.13623 -55.62729 7.97519 -82.55345 5.48545 2.66712 43.07431 -5.13077 -8.59393 -21.66363 -6.82296 -2.15355 -3.30136 48.47434 10.35392 2.30287 -26.9965 -7.13413 1.79828 3.12914
2e-05 -2e-05 -9e-05 24.13895 -28.81923 -7.58129 48.91887 2.99887 -3.23902 -16.41754 -1.97128 -0.61938 36.08003 -106.60285 55.63414 8.40688 85.70038 9.29046 -1.80644 9.8312 107.17385 -55.62908 7.98612 -82.62755 5.46498 2.63603 43.06563 -5.13061 -8.56566 -21.67003 -6.82426 -2.16203 -3.30354 48.45757 10.4329 2.64956 -27.00051 -7.13592 1.76129 3.10925
1e-05 -3e-05 -9e-05 24.13637 -28.8019 -7.57589 48.90188 2.99905 -3.22502 -16.4062 -1.96176 -0.61987 36.05185 -106.62679 55.63413 8.38942 85.70833 9.22745 -1.7781 9.88617 107.21432 -55.63216 7.99672 -82.71168 5.44818 2.6026 43.0547 -5.12909 -8.53332 -21.67615 -6.82556 -2.17125 -3.30585 48.43692 10.52066 3.03053 -27.00434 -7.1378 1.72106 3.08741
-4e-05 -4e-05 -8e-05 24.13831 -28.78761 -7.57162 48.88241 2.99729 -3.21467 -16.39872 -1.95442 -0.62045 36.0698 -106.65736 55.63393 8.40975 85.71457 9.15347 -1.76213 9.95011 107.2482 -55.62748 8.00866 -82.77471 5.42198 2.57383 43.04871 -5.13063 -8.50952 -21.68287 -6.82685 -2.17891 -3.30788 48.42474 10.58973 3.33929 -27.00862 -7.13951 1.68759 3.06966
-0.00016 -6e-05 -7e-05 24.15146 -28.78073 -7.57081 48.85642 2.99108 -3.21332 -16.40061 -1.95236 -0.62122 36.19119 -106.70126 55.63451 8.50558 85.70385 9.07307 -1.7753 10.02342 107.26796 -55.63666 8.02037 -82.77889 5.38392 2.55958 43.05489 -5.13921 -8.5095 -21.69099 -6.82807 -2.18239 -3.3092 48.43366 10.60826 3.44704 -27.01369 -7.14061 1.67337 3.06347
-0.00031 -9e-05 -6e-05 24.16937 -28.77711 -7.57107 48.82791 2.98272 -3.2158 -16.40668 -1.95258 -0.62208 36.36583 -106.75244 55.63366 8.64594 85.69326 8.97767 -1.80128 10.11088 107.27994 -55.62743 8.03513 -82.76211 5.33427 2.54924 43.06634 -5.15113 -8.5179 -21.69976 -6.82929 -2.1843 -3.31023 48.45152 10.6078 3.48272 -27.01931 -7.14156 1.66582 3.06133
-0.00045 -0.00011 -5e-05 24.18589 -28.7726 -7.5706 48.80033 2.97482 -3.21725 -16.41151 -1.95226 -0.62292 36.52782 -106.80381 55.63388 8.78258 85.69117 8.87315 -1.82515 10.1989 107.29341 -55.60893 8.0498 -82.75549 5.28029 2.53655 43.07623 -5.16237 -8.52229 -21.70839 -6.83055 -2.18684 -3.31136 48.46664 10.61558 3.55333 -27.02498 -7.14268 1.65473 3.05712
